<?xml version="1.0" encoding="UTF-8"?>
<svg xmlns="http://www.w3.org/2000/svg" xmlns:xlink="http://www.w3.org/1999/xlink" viewBox="0 0 48 48" width="48px" height="48px">
<g id="surface130431859">
<path style=" stroke:none;fill-rule:nonzero;fill:rgb(0%,0%,0%);fill-opacity:1;" d="M 24 0.015625 C 10.753906 0.015625 0.015625 10.753906 0.015625 24 C 0.015625 35.324219 7.867188 44.8125 18.421875 47.328125 C 17.878906 47.195312 17.335938 47.050781 16.804688 46.882812 L 16.804688 41.390625 C 16.804688 41.390625 15.90625 41.6875 14.707031 41.6875 C 11.351562 41.6875 9.957031 38.695312 9.609375 37.191406 C 9.398438 36.277344 8.847656 35.40625 8.253906 34.878906 C 7.546875 34.246094 7.214844 34.246094 7.210938 34.027344 C 7.203125 33.574219 7.816406 33.59375 8.109375 33.59375 C 9.609375 33.59375 10.746094 35.1875 11.273438 36.015625 C 12.582031 38.050781 13.984375 38.390625 14.707031 38.390625 C 15.605469 38.390625 16.382812 38.257812 16.917969 37.996094 C 17.164062 36.257812 17.9375 34.703125 19.203125 33.59375 C 13.578125 32.46875 9.609375 29.242188 9.609375 24 C 9.609375 21.300781 10.691406 18.816406 12.5 16.8125 C 12.316406 16.289062 12.007812 15.230469 12.007812 13.507812 C 12.007812 12.367188 12.085938 10.96875 12.605469 9.609375 C 12.605469 9.609375 16.027344 9.632812 19.253906 12.6875 C 20.742188 12.253906 22.335938 12.007812 24 12.007812 C 25.664062 12.007812 27.257812 12.253906 28.746094 12.6875 C 31.972656 9.632812 35.394531 9.609375 35.394531 9.609375 C 35.914062 10.96875 35.992188 12.367188 35.992188 13.507812 C 35.992188 15.367188 35.746094 16.449219 35.59375 16.917969 C 37.34375 18.902344 38.390625 21.347656 38.390625 24 C 38.390625 29.242188 34.421875 32.46875 28.796875 33.59375 C 30.300781 34.914062 31.195312 36.835938 31.195312 38.992188 L 31.195312 46.882812 C 30.664062 47.050781 30.125 47.195312 29.578125 47.328125 C 40.132812 44.8125 47.984375 35.324219 47.984375 24 C 47.984375 10.753906 37.246094 0.015625 24 0.015625 Z M 25.671875 47.921875 C 25.121094 47.960938 24.5625 47.984375 24 47.984375 C 24.5625 47.984375 25.117188 47.957031 25.671875 47.921875 Z M 29.335938 47.382812 C 28.265625 47.625 27.164062 47.796875 26.039062 47.894531 C 27.164062 47.796875 28.265625 47.625 29.335938 47.382812 Z M 24 47.984375 C 23.4375 47.984375 22.878906 47.960938 22.328125 47.921875 C 22.882812 47.957031 23.4375 47.984375 24 47.984375 Z M 21.960938 47.894531 C 20.835938 47.796875 19.734375 47.625 18.664062 47.382812 C 19.734375 47.625 20.835938 47.796875 21.960938 47.894531 Z M 21.960938 47.894531 "/>
</g>
</svg>
