<svg xmlns="http://www.w3.org/2000/svg" width="48" height="48"><path style="stroke:none;fill-rule:nonzero;fill:#0288d1;fill-opacity:1" d="M24 0C10.746 0 0 10.746 0 24s10.746 24 24 24 24-10.746 24-24S37.254 0 24 0Zm0 0"/><path style="stroke:none;fill-rule:nonzero;fill:#fff;fill-opacity:1" d="M12 18h4.8v18H12Zm2.387-2.398h-.028c-1.433 0-2.359-1.07-2.359-2.403 0-1.363.957-2.398 2.414-2.398 1.461 0 2.36 1.035 2.387 2.398 0 1.332-.926 2.403-2.414 2.403Zm22.812 9a6.598 6.598 0 0 0-12-3.79V18h-4.8v18h4.8v-9.602a3.6 3.6 0 0 1 7.2 0V36h4.8V24.602Zm0 0"/></svg>